<svg width="682" height="490" viewBox="170 128 682 490" fill="none" xmlns="http://www.w3.org/2000/svg">
<path fill-rule="evenodd" clip-rule="evenodd" d="M407.269 306.25C428.477 300.023 452.055 299.687 473.27 306.187C473.91 306.369 474.55 306.552 475.209 306.739C491.083 311.257 504.765 318.515 517.27 329.187C517.785 329.619 518.301 330.051 518.832 330.496C530.852 340.645 539.356 352.682 547.27 366.187L549.359 363.074C570.619 331.627 596.42 310.725 634.27 303.187C659.134 299.318 685.494 302.358 708.269 313.187L711.863 314.808C720.122 318.695 727.23 323.393 734.269 329.187L736.887 331.34C763.059 353.884 776.361 387.331 779.269 421.187C781.37 461.948 771.646 504.027 744.074 534.988C730.748 549.666 730.748 549.666 721.332 550.562C716.229 550.437 713.22 547.868 709.457 544.625C707.274 541.983 707.065 539.171 706.957 535.875L706.844 533.637C708.002 526.975 713.84 522.549 718.519 518.125C730.359 506.583 738.813 492.843 739.519 475.937C739.354 466.082 735.242 456.627 728.605 449.367C718.184 439.897 705.016 437.47 691.355 437.906C678.357 438.624 666.15 444.685 657.27 454.187C644.365 469.921 639.599 489.193 641.27 509.187C643.671 531.422 653.863 552.673 671.371 566.894C691.464 581.779 714.207 587.264 738.99 583.808C763.722 579.258 784.204 564.84 798.523 544.457C803.376 537.189 806.849 529.202 810.269 521.187L811.797 517.652C815.87 507.662 819.117 496.933 819.769 486.125C820.165 480.145 821.867 476.315 826.457 472.25C831.082 470.503 835.597 470.231 840.301 471.914C844.256 473.976 846.756 476.002 848.269 480.187C850.571 510.298 835.642 546.257 816.797 569.269L814.269 572.187C813.831 572.701 813.394 573.215 812.942 573.744C795.763 593.769 773.882 606.475 748.269 612.187C747.553 612.365 746.836 612.543 746.098 612.725C738.783 614.404 731.627 614.534 724.144 614.5C722.857 614.494 721.569 614.489 720.243 614.483C689.272 614.088 662.469 601.037 640.874 579.212C628.389 566.133 619.405 549.46 614.27 532.187L613.301 529.031C608.554 510.219 609.16 487.628 615.27 469.187L615.919 467.204C623.528 444.774 639.051 425.996 660.27 415.187C672.124 410.025 682.078 407.841 694.957 407.875L698.564 407.826C716.038 407.817 731.921 412.754 745.269 424.187L748.269 426.187C749.188 403.533 739.528 379.536 725.269 362.187L723.824 360.254C715.857 350.033 703.765 344.489 692.269 339.187L689.516 337.902C668.489 328.792 643.247 329.577 622.133 337.765C596.954 347.979 580.888 365.431 570.27 390.187C563.844 406.886 561.668 424.124 561.724 441.878C561.715 443.762 561.704 445.647 561.692 447.531C561.665 452.581 561.661 457.632 561.662 462.682C561.659 467.985 561.633 473.287 561.61 478.59C561.57 488.601 561.549 498.612 561.536 508.624C561.52 520.034 561.482 531.444 561.441 542.854C561.359 566.299 561.306 589.743 561.27 613.187H532.27C532.266 610.86 532.263 608.533 532.259 606.136C532.222 584.128 532.164 562.12 532.086 540.112C532.046 528.8 532.014 517.487 531.999 506.175C531.986 496.304 531.958 486.433 531.915 476.562C531.893 471.346 531.877 466.129 531.878 460.912C532.213 421.108 532.212 421.107 521.27 383.187L519.937 380.262C509.956 360.385 492.85 344.446 471.707 337.375C469.235 336.621 466.756 335.891 464.27 335.187L461.137 334.254C451.33 331.633 441.361 331.479 431.27 331.187V333.187L432.984 333.953C447.253 341.661 457.901 358.714 464.27 373.187L465.091 375.021C473.473 394.764 471.567 420.239 463.832 439.828C459.757 448.878 454.117 455.226 447.27 462.187C445.229 464.49 443.25 466.833 441.27 469.187L443.5 469.992C458.86 476.621 470.003 493.43 476.273 508.379C483.573 528.962 481.511 550.668 472.656 570.398C462.626 590.572 446.429 603.014 425.269 610.187L422.258 611.25C399.235 618.473 372.972 615.301 351.788 604.35C345.904 601.145 340.507 597.363 335.269 593.187L332.469 591.078L330.269 589.187V587.187H328.269C302.02 559.975 290.294 519.902 290.066 482.769C290.059 481.998 290.052 481.226 290.045 480.431C290.028 477.954 290.022 475.477 290.019 473C290.018 472.153 290.018 471.305 290.017 470.432C290.027 457.135 290.673 444.262 293.269 431.187C293.403 430.46 293.538 429.732 293.676 428.982C300.572 392.103 322.222 356.859 351.269 333.187H353.269V331.187C337.533 331.382 322.428 331.706 307.269 336.187C306.628 336.368 305.987 336.548 305.326 336.734C285.514 342.379 269.148 352.902 253.633 366.219C249.537 369.63 246.333 369.637 241.109 369.609C236.674 368.95 233.973 366.682 231.269 363.187C229.678 358.412 229.296 354.152 230.269 349.187C235.311 340.756 244.313 334.743 252.269 329.187C252.866 328.77 253.463 328.352 254.078 327.922C279.293 310.571 309.007 302.021 339.457 301.75C340.172 301.743 340.888 301.736 341.625 301.729C356.406 301.66 374.877 302.491 388.269 309.187C395.09 309.676 400.761 308.187 407.269 306.25ZM395.269 344.188C390.639 343.059 388.483 343.082 384.418 345.727L382.269 347.188L379.496 348.899C351.621 366.863 331.199 397.458 323.992 429.735L323.269 433.188C318.341 454.265 317.305 476.163 320.644 497.614C320.971 499.482 321.294 501.351 321.578 503.225C323.881 518.736 327.975 533.477 335.294 547.411C344.922 564.952 359.598 578.232 378.894 584.188C396.603 587.85 415.188 585.646 430.469 575.766C440.137 568.872 448.187 558.069 450.27 546.188C451.799 528.985 449.471 515.811 438.27 502.188C426.182 490.527 412.494 486.216 396.019 485.751C391.838 485.736 387.937 485.793 383.969 484.354C379.266 482.088 376.476 480.154 374.269 475.188C373.623 470.558 373.697 466.605 375.457 462.251C378.134 459.204 380.809 457.418 384.855 456.782C391.919 456.545 398.738 455.656 405.652 454.192C419.323 450.398 429.795 440.589 436.816 428.532C442.229 416.977 442.645 400.576 438.324 388.559C430.131 368.184 415.401 353.13 395.269 344.188Z" fill="#44433F"/>
<path d="M455.082 131C455.85 131 456.618 131 457.409 131C497.489 131.045 497.489 131.045 505.082 137.625C508.801 141.982 509.711 144.335 509.593 149.903C508.938 154.523 505.8 158.271 502.269 161.188C498.882 162.317 496.275 162.321 492.707 162.313C491.55 162.315 490.394 162.318 489.203 162.32C486.318 162.223 483.576 162.022 480.718 161.699C418.324 155.136 350.898 174.819 302.269 214.188C301.414 214.879 301.414 214.879 300.542 215.585C283.512 229.479 268.554 244.656 255.269 262.188C254.852 262.732 254.434 263.277 254.004 263.838C228.35 297.5 212.203 338.693 205.723 380.301C205.29 383.058 204.824 385.808 204.355 388.559C196.127 439.287 207.609 494.483 230.269 540.188C230.623 540.917 230.977 541.646 231.342 542.398C238.587 557.239 247.826 570.368 258.592 582.857C268.265 594.114 268.265 594.114 267.75 601.168C266.446 606.649 263.732 610.259 259.019 613.25C253.656 614.591 249.22 614.906 244.304 612.043C237.535 606.575 232.425 599.134 227.269 592.188C226.773 591.524 226.278 590.861 225.767 590.177C197.667 552.319 182.128 506.539 175.269 460.188C175.165 459.519 175.06 458.85 174.953 458.161C173.062 445.523 173.06 432.812 173.019 420.063C173.014 419.217 173.009 418.371 173.003 417.499C172.927 401.539 174.188 385.923 177.437 370.278C178.011 367.483 178.551 364.685 179.07 361.879C188.612 311.76 213.035 262.276 248.269 225.188C249.401 223.881 250.527 222.569 251.644 221.25C258.85 212.972 266.808 205.174 275.269 198.188C275.767 197.771 276.265 197.354 276.778 196.924C326.275 155.612 390.463 130.922 455.082 131Z" fill="#44433F"/>
</svg>
