<svg width="86" height="16" viewBox="0 0 86 16" fill="none" xmlns="http://www.w3.org/2000/svg">
<path d="M21.9828 7.07715C21.6977 6.98245 21.4224 6.8627 21.1603 6.71945C21.1303 6.70042 21.105 6.67526 21.0863 6.64573C21.0676 6.61621 21.0561 6.5831 21.0524 6.54876C21.0524 6.32443 21.2221 6.2139 21.5621 6.2139C22.0992 6.23694 22.6194 6.40134 23.0655 6.68911V5.72516C22.6142 5.50765 22.1148 5.39773 21.6097 5.40477C21.1286 5.38252 20.6533 5.51371 20.2581 5.77786C20.1231 5.87037 20.0091 5.9883 19.9233 6.12445C19.8374 6.26059 19.7814 6.41209 19.7586 6.56971C19.7359 6.72733 19.7468 6.88772 19.7909 7.04111C19.835 7.19449 19.9112 7.33771 20.0149 7.4619C20.2875 7.73778 20.6285 7.94297 21.0062 8.05836C21.304 8.15358 21.5896 8.28109 21.8573 8.43845C21.8946 8.46641 21.9252 8.50167 21.9471 8.54188C21.969 8.58209 21.9817 8.62635 21.9843 8.67164C21.9843 8.88384 21.7547 8.99203 21.2975 8.99203C20.7919 8.96469 20.2972 8.83966 19.8432 8.62452V9.57963C20.3495 9.79734 20.8998 9.90501 21.4546 9.89491C21.9388 9.92521 22.4193 9.79607 22.8165 9.52883C22.9756 9.4038 23.1017 9.24451 23.1845 9.06398C23.2674 8.88342 23.3046 8.6867 23.2932 8.48974C23.2923 8.20432 23.1877 7.92811 22.9974 7.70861C22.7214 7.41989 22.3737 7.2028 21.9867 7.0776" fill="#181818"/>
<path d="M36.3104 8.68862V6.7187C36.3104 5.84349 35.6746 5.40601 34.4028 5.40634C33.7139 5.40168 33.038 5.58406 32.4528 5.93238V7.03909C32.6639 6.81721 32.9201 6.63873 33.2052 6.51448C33.4907 6.39022 33.7993 6.32277 34.1124 6.31622C34.6635 6.31622 34.9245 6.5572 34.8945 7.03909C33.6164 7.40067 32.851 7.69727 32.5981 7.9289C32.472 8.04663 32.3729 8.18855 32.3078 8.34538C32.2426 8.50226 32.2126 8.67053 32.2198 8.83927C32.2211 8.9805 32.2543 9.1198 32.3175 9.24741C32.3808 9.37502 32.472 9.48784 32.5857 9.57797C32.8292 9.7892 33.1482 9.9027 33.4767 9.8951C34.0114 9.88354 34.5292 9.71454 34.96 9.41103C35.0428 9.73468 35.307 9.8951 35.7518 9.8951C36.2221 9.87884 36.6793 9.74335 37.0768 9.50244V8.74786C36.9246 8.87387 36.7399 8.95798 36.5417 8.99128C36.3866 8.99128 36.3084 8.88961 36.3084 8.68813L36.3104 8.68862ZM34.8925 8.7651C34.6837 8.96401 34.4047 9.08051 34.1105 9.09155C34.0495 9.09246 33.9889 9.08083 33.9329 9.05753C33.8771 9.0342 33.827 8.99969 33.7859 8.95628C33.6986 8.8699 33.6507 8.75386 33.6526 8.63358C33.6516 8.53817 33.6754 8.44402 33.7217 8.35949C33.7676 8.27493 33.8351 8.20266 33.9172 8.14905C34.2196 7.96419 34.5471 7.81967 34.8903 7.71953L34.8925 8.7651Z" fill="#181818"/>
<path d="M39.2606 3.97266H39.0837L37.2012 5.99247V6.25971H37.8448V8.11024C37.8285 8.33108 37.8607 8.55273 37.9396 8.76086C38.0181 8.96899 38.1413 9.159 38.3016 9.31861C38.6594 9.60961 39.1205 9.75667 39.5888 9.72901C40.0408 9.72343 40.4872 9.63216 40.9024 9.46036V8.4768C40.611 8.63227 40.2855 8.71879 39.9521 8.72912C39.8589 8.73404 39.7654 8.71996 39.6781 8.68783C39.5907 8.65567 39.5116 8.60617 39.4454 8.54256C39.3815 8.47426 39.332 8.39446 39.3004 8.30778C39.2685 8.22106 39.2551 8.1292 39.2606 8.0375V6.25971H40.9024V5.33119H39.2606V3.97266Z" fill="#181818"/>
<path d="M45.4826 6.07675C45.2636 5.8562 44.9987 5.68255 44.7048 5.56722C44.4112 5.45187 44.0951 5.39745 43.7777 5.40752C43.4639 5.39735 43.1511 5.44845 42.8584 5.55774C42.5658 5.667 42.2996 5.83218 42.0754 6.04318C41.8544 6.25601 41.6811 6.51005 41.5664 6.78958C41.452 7.06914 41.3982 7.36825 41.409 7.66847C41.3963 7.97159 41.453 8.27373 41.5755 8.55342C41.698 8.83311 41.8834 9.08348 42.1184 9.28675C42.6476 9.71253 43.3251 9.93063 44.0152 9.89723C44.7299 9.92131 45.4337 9.72305 46.0216 9.33198V8.47528C45.5491 8.84742 44.9638 9.0636 44.3532 9.09182C43.9755 9.11062 43.6034 8.99872 43.3045 8.77654C43.1713 8.66262 43.0637 8.52348 42.9891 8.36788C42.9145 8.21224 42.8741 8.04354 42.8708 7.87227H46.1031C46.134 7.548 46.0946 7.22109 45.9874 6.91207C45.8805 6.60305 45.7081 6.31854 45.481 6.07629L45.4826 6.07675ZM42.8995 7.15826C42.9689 6.53146 43.2948 6.21576 43.8755 6.21576C44.4565 6.21576 44.7774 6.53146 44.8527 7.15826H42.8995Z" fill="#181818"/>
<path d="M55.4135 5.73935L54.3968 7.96296L53.445 5.73935H52.7639V5.73606H51.0212V5.73935H48.9366C48.3911 5.7023 47.8528 5.87325 47.4379 6.21502C47.277 6.35312 47.1479 6.52205 47.0593 6.71089C46.9707 6.89976 46.9241 7.10434 46.9231 7.31146C46.9172 7.63674 47.0456 7.95103 47.2806 8.18589C47.5214 8.43022 47.8397 8.59113 48.1861 8.6434C47.64 8.76247 47.3669 8.98008 47.3666 9.29627C47.3666 9.56801 47.5478 9.75564 47.9105 9.8592C47.1098 10.0658 46.708 10.4328 46.708 10.9556C46.7109 11.1469 46.7699 11.3336 46.8778 11.4945C46.9856 11.6554 47.1381 11.7843 47.3184 11.8664C47.8756 12.1262 48.4928 12.2446 49.1113 12.2101C49.7268 12.2449 50.3404 12.1158 50.884 11.837C51.0782 11.7268 51.2375 11.5685 51.3454 11.3786C51.4533 11.1887 51.5057 10.9744 51.4969 10.7583C51.4907 10.4479 51.3617 10.1513 51.1362 9.92868C50.7856 9.62647 50.3294 9.46152 49.8578 9.46654C49.5026 9.45741 49.15 9.40824 48.8069 9.32006C48.7681 9.30448 48.7352 9.27864 48.7114 9.24557C48.6876 9.21252 48.6743 9.17362 48.673 9.1335C48.6727 9.09674 48.6818 9.06044 48.6994 9.02789C48.7173 8.99534 48.7434 8.96754 48.775 8.94698C49.0559 8.85746 49.3485 8.80656 49.6444 8.79587C50.083 8.77557 50.4965 8.59462 50.7999 8.29032C51.0479 8.03973 51.188 7.70859 51.1919 7.3632C51.1857 7.10861 51.1082 6.8603 50.9677 6.64408H52.3784L53.6955 9.34571L52.3748 12.1243H53.8826L56.8985 5.73512L55.4135 5.73935ZM49.0904 10.3848C49.8252 10.3848 50.1925 10.5433 50.1925 10.8605C50.1863 10.943 50.1566 11.0224 50.1068 11.09C50.0569 11.1576 49.9888 11.211 49.91 11.2443C49.6848 11.3599 49.4313 11.4151 49.1758 11.4038C48.4054 11.4038 48.0183 11.2359 48.0183 10.8978C48.0226 10.8157 48.0519 10.7365 48.1024 10.6702C48.1532 10.6039 48.223 10.5533 48.3034 10.5247C48.5511 10.4215 48.8203 10.3736 49.0904 10.3848ZM49.6307 7.86641C49.559 7.94325 49.4707 8.00454 49.3723 8.04619C49.2739 8.08786 49.1673 8.10892 49.0598 8.108C48.8444 8.10667 48.6381 8.02458 48.485 7.87928C48.3321 7.73398 48.2445 7.53702 48.2412 7.33059C48.2389 7.2269 48.2588 7.12389 48.2992 7.02773C48.3396 6.93156 48.3999 6.84423 48.4765 6.77094C48.5521 6.69648 48.643 6.6378 48.7434 6.59856C48.8441 6.55929 48.9516 6.54036 49.0601 6.54287C49.1667 6.53945 49.2726 6.55705 49.3716 6.59452C49.4707 6.63196 49.5606 6.68853 49.6359 6.76068C49.7102 6.82761 49.7689 6.90852 49.8089 6.99833C49.8487 7.08814 49.8686 7.18492 49.8676 7.28252C49.8715 7.49873 49.7865 7.70777 49.631 7.86458" fill="#181818"/>
<path d="M26.4097 8.72958C26.3163 8.73469 26.2228 8.72068 26.1354 8.68852C26.048 8.65639 25.9688 8.60679 25.9029 8.54305C25.8392 8.47475 25.7902 8.39504 25.7587 8.30853C25.7273 8.22201 25.7139 8.13037 25.7195 8.0389V6.25974L25.8046 6.25368H27.2814V5.32747H25.7195V3.97266H25.5415L23.6592 5.9925V6.25974H24.3032V8.11024C24.2866 8.33111 24.3188 8.55286 24.3975 8.76102C24.4761 8.96922 24.5996 9.15917 24.7599 9.31861C25.118 9.61003 25.58 9.75713 26.0488 9.72901C26.4997 9.72321 26.9449 9.63226 27.3593 9.46131V8.4768C27.0683 8.63231 26.743 8.71882 26.4102 8.72912" fill="#181818"/>
<path d="M31.9249 5.79876L31.5336 6.99915C31.2862 6.82282 30.9956 6.71161 30.6896 6.67648C30.5087 6.68997 30.3357 6.75224 30.1903 6.85616C30.045 6.96008 29.9332 7.10134 29.8681 7.26359C29.725 7.47394 29.6116 7.70168 29.5314 7.94077V9.81274H28.1143V5.49238H29.5314V6.49178L29.5481 6.72959C29.956 5.8435 30.436 5.40234 30.9819 5.40234C31.3319 5.43679 31.6616 5.57544 31.9249 5.79876Z" fill="#181818"/>
<path d="M28.1175 5.38281H28.1123V6.30808H28.1175V5.38281Z" fill="#181818"/>
<path d="M68.6378 5.58984H72.3856L70.0609 9.01903H72.3856V9.79644H68.543L70.8491 6.36635H68.6388L68.6378 5.58984Z" fill="#181818"/>
<path d="M76.9044 7.76662H73.8191C73.8237 8.12709 73.9749 8.4716 74.2408 8.72643C74.3754 8.84654 74.5337 8.93984 74.7061 9.0009C74.8785 9.062 75.062 9.08964 75.2458 9.08227C75.8177 9.08162 76.3736 8.90142 76.8285 8.56926V9.38259C76.5847 9.54305 76.3169 9.66681 76.034 9.74961C75.7329 9.82714 75.4217 9.86402 75.1099 9.8592C74.6977 9.87689 74.2893 9.77692 73.9364 9.57195C73.6334 9.37448 73.3864 9.10775 73.2179 8.7959C73.0325 8.44696 72.9399 8.05938 72.9484 7.66779C72.923 7.09664 73.1267 6.53782 73.517 6.10591C73.7018 5.90873 73.9296 5.75274 74.1841 5.64895C74.4386 5.54516 74.7136 5.49612 74.99 5.50525C75.2533 5.49511 75.5156 5.54259 75.7567 5.6441C75.9982 5.74557 76.2123 5.8984 76.383 6.09102C76.7487 6.53612 76.9331 7.09351 76.9018 7.65938L76.9044 7.76662ZM73.84 7.26717H76.0474C76.0448 6.98389 75.935 6.71118 75.7378 6.49998C75.6397 6.40825 75.5231 6.33682 75.395 6.29016C75.2669 6.24346 75.1301 6.22251 74.9932 6.22857C74.7107 6.21837 74.435 6.31597 74.2271 6.49998C74.0137 6.70811 73.8771 6.97757 73.838 7.26717" fill="#181818"/>
<path d="M78.7757 5.58254V6.54652L78.8242 6.47284C79.2443 5.82551 79.6633 5.5 80.084 5.5C80.476 5.52815 80.8426 5.69839 81.1089 5.97615L80.6507 6.70648C80.4359 6.47225 80.1358 6.32545 79.8119 6.29609C79.6672 6.29932 79.5255 6.33581 79.3984 6.40252C79.2716 6.46922 79.1631 6.56418 79.0823 6.67944C78.8767 6.9416 78.7688 7.26267 78.777 7.59072V9.78914H77.9014V5.58254H78.7757Z" fill="#181818"/>
<path d="M83.5682 5.58314C83.8749 5.57427 84.1802 5.62465 84.466 5.73131C84.7518 5.83793 85.0125 5.99865 85.2321 6.20388C85.4491 6.40474 85.6202 6.6468 85.7346 6.91456C85.8487 7.18236 85.9034 7.47003 85.8949 7.7592C85.9027 8.0428 85.8464 8.32461 85.7304 8.5855C85.614 8.84639 85.4407 9.08026 85.222 9.27112C84.7625 9.67705 84.1548 9.8932 83.5301 9.87277C83.2267 9.88091 82.9243 9.83125 82.6408 9.72662C82.3573 9.62198 82.0986 9.46449 81.879 9.2632C81.6681 9.06227 81.501 8.82325 81.3872 8.55995C81.2735 8.29668 81.2152 8.01442 81.2158 7.72942C81.2168 7.44445 81.2764 7.16238 81.3915 6.89967C81.5065 6.63692 81.675 6.39871 81.8868 6.19873C82.1103 5.99444 82.3743 5.8348 82.6627 5.72912C82.9514 5.62345 83.259 5.57382 83.5676 5.58314H83.5682ZM83.519 6.33351C83.3291 6.32728 83.1397 6.35902 82.9634 6.4268C82.7868 6.49458 82.6271 6.59687 82.4942 6.72712C82.3606 6.85959 82.2566 7.01649 82.1876 7.18842C82.1188 7.36038 82.0869 7.54387 82.0934 7.72795C82.0869 7.91053 82.1198 8.0924 82.1902 8.26218C82.2605 8.43192 82.3671 8.58589 82.5023 8.71431C82.6431 8.84196 82.8087 8.94138 82.9898 9.00675C83.171 9.07211 83.3639 9.10206 83.5575 9.09486C83.7501 9.10203 83.942 9.07159 84.1219 9.00538C84.3018 8.93916 84.4657 8.83853 84.6038 8.70962C84.8688 8.44121 85.0151 8.08474 85.0118 7.71508C85.0086 7.34542 84.8564 6.99133 84.5866 6.72712C84.4448 6.59625 84.277 6.49396 84.0932 6.42635C83.9094 6.35873 83.7133 6.32719 83.5168 6.33351" fill="#181818"/>
<path d="M65.3904 9.26245C65.3412 9.22113 65.2991 9.17244 65.2659 9.11832C65.2281 9.05301 65.2004 8.98282 65.1838 8.90986C65.1551 8.74693 65.1437 8.58162 65.1496 8.41647V7.23283H64.6855V7.18059L65.6775 6.20635V6.75713H66.3856C66.2057 5.88156 65.6973 5.09955 64.957 4.55887C64.2163 4.01816 63.2951 3.75626 62.367 3.82261C61.4386 3.88899 60.5679 4.27905 59.9194 4.91908C59.2706 5.55911 58.889 6.40477 58.8467 7.29624C58.8933 7.218 58.9497 7.14526 59.0138 7.07941C59.1338 6.95529 59.2798 6.8572 59.4424 6.7918C59.605 6.7264 59.7803 6.69515 59.9566 6.70023C60.1567 6.70369 60.3545 6.74191 60.5402 6.81308V5.37249H61.0697V9.42988H59.9439C59.6561 9.43828 59.3743 9.35076 59.1462 9.18222C59.4095 9.8374 59.8663 10.4047 60.461 10.8146C61.0557 11.2245 61.7619 11.4593 62.4934 11.4901C63.225 11.5209 63.9501 11.3464 64.58 10.988C65.2095 10.6296 65.7166 10.1029 66.0389 9.4723C66.0242 9.47423 66.0095 9.47533 65.9949 9.47556C65.7726 9.48276 65.5563 9.4068 65.3914 9.26381L65.3904 9.26245ZM64.0664 9.09456C63.9302 9.2208 63.7689 9.31954 63.5923 9.38491C63.4153 9.45028 63.2266 9.48094 63.0373 9.47511C62.8512 9.47817 62.6662 9.44513 62.4938 9.37793C62.3211 9.31077 62.1643 9.21083 62.0333 9.08417C61.902 8.9575 61.7987 8.80669 61.7299 8.64083C61.6609 8.47496 61.6276 8.29743 61.6322 8.11892C61.6276 7.93797 61.6612 7.75802 61.7316 7.59001C61.8016 7.42199 61.9069 7.26945 62.0405 7.14165C62.1744 7.01384 62.3338 6.91348 62.5091 6.84664C62.6847 6.77981 62.8724 6.74794 63.0611 6.75292C63.2488 6.74764 63.4358 6.77977 63.6099 6.84726C63.7842 6.91478 63.9416 7.01622 64.0729 7.14517C64.2062 7.27545 64.3105 7.43023 64.3795 7.60024C64.449 7.77024 64.4816 7.95191 64.4754 8.1343C64.4809 8.31274 64.4473 8.49028 64.3769 8.65555C64.3066 8.8208 64.201 8.97018 64.067 9.0941" fill="#181818"/>
<path d="M63.0328 7.28557C62.9175 7.28202 62.8028 7.30144 62.6956 7.34263C62.5887 7.38382 62.4916 7.44583 62.4107 7.52479C62.3293 7.60541 62.2661 7.70098 62.224 7.80575C62.1823 7.91048 62.1631 8.02225 62.1676 8.13435C62.1634 8.24498 62.1833 8.35522 62.226 8.45807C62.2687 8.56091 62.3332 8.65414 62.4156 8.73176C62.501 8.80967 62.6017 8.87045 62.7118 8.9105C62.822 8.95055 62.9393 8.96906 63.0573 8.96495C63.1742 8.96932 63.2909 8.95094 63.4001 8.91086C63.5096 8.87077 63.6093 8.80984 63.6934 8.73176C63.8543 8.5687 63.9433 8.35213 63.9413 8.12761C63.9391 7.90305 63.8465 7.68798 63.6826 7.52759C63.5962 7.44844 63.4946 7.38655 63.3831 7.3455C63.2717 7.30444 63.1527 7.28498 63.0332 7.28834" fill="#181818"/>
<path d="M60.54 8.95554V7.33589C60.3852 7.25866 60.2138 7.21744 60.0395 7.21555C59.9225 7.21076 59.8058 7.23044 59.6976 7.27329C59.5895 7.31614 59.4924 7.38112 59.4132 7.46366C59.2493 7.64954 59.1655 7.88846 59.1795 8.13149C59.1652 8.35086 59.2375 8.56737 59.3825 8.73776C59.4516 8.81581 59.5406 8.87541 59.6406 8.91077C59.8013 8.94733 59.9665 8.96212 60.1314 8.95463L60.54 8.95554Z" fill="#181818"/>
<path d="M65.6797 8.54468C65.6797 8.83617 65.8058 8.98258 66.0596 8.98258C66.1268 8.98108 66.1936 8.97346 66.2591 8.95974C66.4667 8.42812 66.5396 7.85691 66.4725 7.29297H65.6797V8.54468Z" fill="#181818"/>
<mask id="mask0_21226_41120" style="mask-type:luminance" maskUnits="userSpaceOnUse" x="0" y="0" width="17" height="16">
<path d="M16.391 0H0V16H16.391V0Z" fill="white"/>
</mask>
<g mask="url(#mask0_21226_41120)">
<path d="M6.56178 6.79283L5.70801 6.30859" stroke="#565E77" stroke-width="0.162933" stroke-linejoin="round"/>
<path d="M10.0752 5.40234L9.47559 6.17937" stroke="#565E77" stroke-width="0.162933" stroke-linejoin="round"/>
<path d="M9.125 9.66016L9.50851 10.5767" stroke="#565E77" stroke-width="0.162933" stroke-linejoin="round"/>
<path d="M6.37478 8.51172L5.59473 8.80418" stroke="#565E77" stroke-width="0.162933" stroke-linejoin="round"/>
<path d="M5.35742 4.95347C5.46822 4.79885 5.80379 4.43694 6.25968 4.22656" stroke="#565E77" stroke-width="0.325866" stroke-linejoin="round"/>
<path d="M6.02607 11.1185C5.80947 10.9918 5.29141 10.5931 4.95215 10.0117" stroke="#565E77" stroke-width="0.325866" stroke-linejoin="round"/>
<path d="M11.465 10.4648C11.3871 10.5938 11.1452 10.8996 10.8008 11.0917" stroke="#565E77" stroke-width="0.325866" stroke-linejoin="round"/>
<path d="M12.5139 7.81641C12.5277 7.94017 12.5224 8.26851 12.3896 8.59158" stroke="#565E77" stroke-width="0.325866" stroke-linejoin="round"/>
<path d="M4.06986 5.07626L3.63379 4.5" stroke="#565E77" stroke-width="0.162933" stroke-linejoin="round"/>
<path d="M3.74564 5.80472L3.24707 5.80469" stroke="#565E77" stroke-width="0.162933" stroke-linejoin="round"/>
<path d="M3.51281 9.06073L2.93945 9.03906" stroke="#565E77" stroke-width="0.162933" stroke-linejoin="round"/>
<path d="M3.93213 9.88281L3.49902 10.3792" stroke="#565E77" stroke-width="0.162933" stroke-linejoin="round"/>
<path d="M10.3711 12.4961L10.5689 12.9129" stroke="#565E77" stroke-width="0.162933" stroke-linejoin="round"/>
<path d="M12.627 10.3945L13.148 11.0729" stroke="#565E77" stroke-width="0.162933" stroke-linejoin="round"/>
<path d="M13.0488 9.49849C13.059 9.49846 13.6315 9.46304 13.9165 9.44531" stroke="#565E77" stroke-width="0.162933" stroke-linejoin="round"/>
<path d="M11.2832 3.65445L11.6064 3.10938" stroke="#565E77" stroke-width="0.162933" stroke-linejoin="round"/>
<path d="M10.4926 3.49959L10.292 2.5" stroke="#565E77" stroke-width="0.162933" stroke-linejoin="round"/>
<path d="M6.86914 2.54688L6.98847 2.91494" stroke="#565E77" stroke-width="0.162933" stroke-linejoin="round"/>
<path d="M7.24902 1.72633C8.71431 1.40565 12.3248 1.66865 13.9242 4.65691C15.5236 7.64512 14.6198 9.94078 13.9242 11.0509" stroke="#565E77" stroke-width="0.325866" stroke-linejoin="round"/>
<path d="M10.2093 13.7432C8.60252 14.1807 5.95792 14.1898 3.85967 12.0263C1.96773 10.0755 1.93863 7.60708 2.33795 6.35938" stroke="#565E77" stroke-width="0.325866" stroke-linejoin="round"/>
<path d="M16.1621 5.84357C15.5453 3.24387 13.6759 1.12907 11.2266 0.171875" stroke="#565E77" stroke-width="0.325866" stroke-linecap="round"/>
<path d="M16.2196 9.33594C15.4703 13.036 12.1997 15.8213 8.27867 15.8213C8.23028 15.8213 8.18198 15.8209 8.13379 15.8201" stroke="#565E77" stroke-width="0.325866" stroke-linecap="round"/>
<path d="M0.420898 9.70312C0.892491 11.58 2.01881 13.1969 3.54292 14.2968" stroke="#565E77" stroke-width="0.325866" stroke-linecap="round"/>
<path d="M0.176758 7.71983C0.176758 4.43256 2.13446 1.60252 4.94756 0.332031" stroke="#565E77" stroke-width="0.325866" stroke-linecap="round"/>
<path d="M8.27854 9.86766C9.41343 9.86766 10.3335 8.94764 10.3335 7.81275C10.3335 6.67786 9.41343 5.75781 8.27854 5.75781C7.14365 5.75781 6.22363 6.67786 6.22363 7.81275C6.22363 8.94764 7.14365 9.86766 8.27854 9.86766Z" fill="#4A5EAB"/>
<path d="M4.80744 6.88639C5.39416 6.88639 5.86979 6.41079 5.86979 5.82407C5.86979 5.23735 5.39416 4.76172 4.80744 4.76172C4.22072 4.76172 3.74512 5.23735 3.74512 5.82407C3.74512 6.41079 4.22072 6.88639 4.80744 6.88639Z" fill="#4A5EAB"/>
<path d="M7.24888 4.99577C7.8356 4.99577 8.3112 4.52017 8.3112 3.93345C8.3112 3.34673 7.8356 2.87109 7.24888 2.87109C6.66216 2.87109 6.18652 3.34673 6.18652 3.93345C6.18652 4.52017 6.66216 4.99577 7.24888 4.99577Z" fill="#0F75BC"/>
<path d="M10.7049 5.59733C11.2916 5.59733 11.7673 5.1217 11.7673 4.53498C11.7673 3.94826 11.2916 3.47266 10.7049 3.47266C10.1182 3.47266 9.64258 3.94826 9.64258 4.53498C9.64258 5.1217 10.1182 5.59733 10.7049 5.59733Z" fill="#27A3A5"/>
<path d="M12.3895 7.85124C12.9762 7.85124 13.4518 7.37564 13.4518 6.78892C13.4518 6.2022 12.9762 5.72656 12.3895 5.72656C11.8028 5.72656 11.3271 6.2022 11.3271 6.78892C11.3271 7.37564 11.8028 7.85124 12.3895 7.85124Z" fill="#3FC1D3"/>
<path d="M11.992 10.6208C12.5787 10.6208 13.0544 10.1452 13.0544 9.55845C13.0544 8.97173 12.5787 8.49609 11.992 8.49609C11.4053 8.49609 10.9297 8.97173 10.9297 9.55845C10.9297 10.1452 11.4053 10.6208 11.992 10.6208Z" fill="#2BB673"/>
<path d="M9.86704 12.6364C10.4538 12.6364 10.9294 12.1608 10.9294 11.5741C10.9294 10.9874 10.4538 10.5117 9.86704 10.5117C9.28032 10.5117 8.80469 10.9874 8.80469 11.5741C8.80469 12.1608 9.28032 12.6364 9.86704 12.6364Z" fill="#EB4C2B"/>
<path d="M6.9647 12.6051C7.55142 12.6051 8.02705 12.1295 8.02705 11.5428C8.02705 10.9561 7.55142 10.4805 6.9647 10.4805C6.37798 10.4805 5.90234 10.9561 5.90234 11.5428C5.90234 12.1295 6.37798 12.6051 6.9647 12.6051Z" fill="#553C8B"/>
<path d="M4.56525 10.1091C5.15197 10.1091 5.62761 9.63342 5.62761 9.0467C5.62761 8.45998 5.15197 7.98438 4.56525 7.98438C3.97853 7.98438 3.50293 8.45998 3.50293 9.0467C3.50293 9.63342 3.97853 10.1091 4.56525 10.1091Z" fill="#146C98"/>
<path d="M2.2854 9.65482C2.65285 9.65482 2.95072 9.35695 2.95072 8.98951C2.95072 8.62206 2.65285 8.32422 2.2854 8.32422C1.91799 8.32422 1.62012 8.62206 1.62012 8.98951C1.62012 9.35695 1.91799 9.65482 2.2854 9.65482Z" fill="#146C98"/>
<path d="M3.08033 11.5415C3.44777 11.5415 3.74565 11.2437 3.74565 10.8763C3.74565 10.5088 3.44777 10.2109 3.08033 10.2109C2.71291 10.2109 2.41504 10.5088 2.41504 10.8763C2.41504 11.2437 2.71291 11.5415 3.08033 11.5415Z" fill="#146C98"/>
<path d="M5.35474 13.936C5.72219 13.936 6.02003 13.6382 6.02003 13.2708C6.02003 12.9033 5.72219 12.6055 5.35474 12.6055C4.98729 12.6055 4.68945 12.9033 4.68945 13.2708C4.68945 13.6382 4.98729 13.936 5.35474 13.936Z" fill="#553C8B"/>
<path d="M7.07154 14.4712C7.43898 14.4712 7.73682 14.1734 7.73682 13.8059C7.73682 13.4385 7.43898 13.1406 7.07154 13.1406C6.70409 13.1406 6.40625 13.4385 6.40625 13.8059C6.40625 14.1734 6.70409 14.4712 7.07154 14.4712Z" fill="#553C8B"/>
<path d="M10.8167 14.1821C11.1841 14.1821 11.4819 13.8843 11.4819 13.5169C11.4819 13.1494 11.1841 12.8516 10.8167 12.8516C10.4492 12.8516 10.1514 13.1494 10.1514 13.5169C10.1514 13.8843 10.4492 14.1821 10.8167 14.1821Z" fill="#EB4C2B"/>
<path d="M13.5637 12.2408C13.9312 12.2408 14.229 11.9429 14.229 11.5755C14.229 11.208 13.9312 10.9102 13.5637 10.9102C13.1963 10.9102 12.8984 11.208 12.8984 11.5755C12.8984 11.9429 13.1963 12.2408 13.5637 12.2408Z" fill="#2BB673"/>
<path d="M14.5725 10.1157C14.94 10.1157 15.2378 9.81789 15.2378 9.45044C15.2378 9.083 14.94 8.78516 14.5725 8.78516C14.2051 8.78516 13.9072 9.083 13.9072 9.45044C13.9072 9.81789 14.2051 10.1157 14.5725 10.1157Z" fill="#2BB673"/>
<path d="M13.1995 4.37354C13.5669 4.37354 13.8648 4.0757 13.8648 3.70826C13.8648 3.34081 13.5669 3.04297 13.1995 3.04297C12.832 3.04297 12.5342 3.34081 12.5342 3.70826C12.5342 4.0757 12.832 4.37354 13.1995 4.37354Z" fill="#27A3A5"/>
<path d="M11.9016 3.18217C12.2691 3.18217 12.5669 2.8843 12.5669 2.51685C12.5669 2.14944 12.2691 1.85156 11.9016 1.85156C11.5342 1.85156 11.2363 2.14944 11.2363 2.51685C11.2363 2.8843 11.5342 3.18217 11.9016 3.18217Z" fill="#27A3A5"/>
<path d="M10.2649 2.51811C10.6323 2.51811 10.9302 2.22023 10.9302 1.85282C10.9302 1.48537 10.6323 1.1875 10.2649 1.1875C9.89745 1.1875 9.59961 1.48537 9.59961 1.85282C9.59961 2.22023 9.89745 2.51811 10.2649 2.51811Z" fill="#27A3A5"/>
<path d="M6.63794 2.59233C7.00539 2.59233 7.30323 2.29448 7.30323 1.92704C7.30323 1.55959 7.00539 1.26172 6.63794 1.26172C6.2705 1.26172 5.97266 1.55959 5.97266 1.92704C5.97266 2.29448 6.2705 2.59233 6.63794 2.59233Z" fill="#0F75BC"/>
<path d="M3.24637 4.63139C3.61379 4.63139 3.91166 4.33355 3.91166 3.9661C3.91166 3.59865 3.61379 3.30078 3.24637 3.30078C2.87893 3.30078 2.58105 3.59865 2.58105 3.9661C2.58105 4.33355 2.87893 4.63139 3.24637 4.63139Z" fill="#4A5EAB"/>
<path d="M2.5813 6.42436C2.94875 6.42436 3.24662 6.12648 3.24662 5.75904C3.24662 5.39159 2.94875 5.09375 2.5813 5.09375C2.21389 5.09375 1.91602 5.39159 1.91602 5.75904C1.91602 6.12648 2.21389 6.42436 2.5813 6.42436Z" fill="#4A5EAB"/>
<path d="M8.69431 7.16036L8.78721 6.97452L8.88015 6.7805C8.71343 6.65752 7.56834 6.51541 7.56834 7.29429C7.56834 8.07314 8.5112 7.89551 8.5112 8.26993C8.5112 8.56944 7.99923 8.47669 7.74327 8.39291C7.74327 8.39291 7.56652 8.62245 7.55469 8.76183C8.66097 9.16851 8.98126 8.57237 9.00313 8.22346C9.00313 7.56209 8.06027 7.61677 8.06027 7.29429C8.06464 7.08877 8.44013 7.05651 8.69431 7.16036Z" fill="white"/>
</g>
</svg>
